<svg
  height="24"
  viewBox="0 0 24 24"
  width="24"
  xmlns="http://www.w3.org/2000/svg"
>
<path fill="#f5e8df" d="m12.5 18c-3.03756612 0-5.5-2.4624339-5.5-5.5 0-3.03756612 2.46243388-5.5 5.5-5.5 3.0375661 0 5.5 2.46243388 5.5 5.5 0 3.0375661-2.4624339 5.5-5.5 5.5zm0-1c2.4852814 0 4.5-2.0147186 4.5-4.5s-2.0147186-4.5-4.5-4.5-4.5 2.0147186-4.5 4.5 2.0147186 4.5 4.5 4.5zm.5-11.5c0 .27614237-.2238576.5-.5.5s-.5-.22385763-.5-.5v-3c0-.27614237.2238576-.5.5-.5s.5.22385763.5.5zm0 17c0 .2761424-.2238576.5-.5.5s-.5-.2238576-.5-.5v-3c0-.2761424.2238576-.5.5-.5s.5.2238576.5.5zm4.8033009-14.59619408c-.1952622.19526215-.5118447.19526215-.7071068 0-.1952622-.19526214-.1952622-.51184463 0-.70710678l2.0502525-2.05025253c.1952622-.19526215.5118446-.19526215.7071068 0 .1952621.19526215.1952621.51184463 0 .70710678zm-11.94974751 11.94974748c-.19526215.1952621-.51184463.1952621-.70710678 0-.19526215-.1952622-.19526215-.5118446 0-.7071068l2.05025253-2.0502525c.19526215-.1952622.51184464-.1952622.70710678 0 .19526215.1952621.19526215.5118446 0 .7071068zm13.64644661-6.8535534c-.2761424 0-.5-.2238576-.5-.5s.2238576-.5.5-.5h3c.2761424 0 .5.2238576.5.5s-.2238576.5-.5.5zm-17 0c-.27614237 0-.5-.2238576-.5-.5s.22385763-.5.5-.5h3c.27614237 0 .5.2238576.5.5s-.22385763.5-.5.5zm14.5961941 4.8033009c-.1952622-.1952622-.1952622-.5118447 0-.7071068.1952621-.1952622.5118446-.1952622.7071068 0l2.0502525 2.0502525c.1952621.1952622.1952621.5118446 0 .7071068-.1952622.1952621-.5118446.1952621-.7071068 0zm-11.94974749-11.94974751c-.19526215-.19526215-.19526215-.51184463 0-.70710678s.51184463-.19526215.70710678 0l2.05025253 2.05025253c.19526215.19526215.19526215.51184464 0 .70710678-.19526214.19526215-.51184463.19526215-.70710678 0z"/></svg>